<?xml version="1.0" encoding="utf-8"?>
<!-- Generator: Adobe Illustrator 29.3.1, SVG Export Plug-In . SVG Version: 9.03 Build 55982)  -->
<svg version="1.1" baseProfile="tiny" id="Layer_1" xmlns="http://www.w3.org/2000/svg" xmlns:xlink="http://www.w3.org/1999/xlink"
	 x="0px" y="0px" viewBox="0 0 200 60" overflow="visible" xml:space="preserve">
<g>
	<path fill="#1E6FFF" d="M8.15,49.59c-2.45-1.05-4.38-2.52-5.8-4.4C0.93,43.31,0.15,41.14,0,38.7h6.9c0.19,2.01,1.14,3.65,2.83,4.92
		c1.69,1.27,3.9,1.91,6.64,1.91c2.54,0,4.55-0.56,6.02-1.69c1.47-1.12,2.2-2.54,2.2-4.26c0-1.76-0.78-3.07-2.35-3.93
		c-1.57-0.86-3.99-1.7-7.26-2.53c-2.98-0.78-5.42-1.58-7.3-2.38c-1.88-0.81-3.5-2.01-4.84-3.6c-1.35-1.59-2.02-3.68-2.02-6.27
		c0-2.05,0.61-3.94,1.83-5.65c1.22-1.71,2.96-3.07,5.21-4.07c2.25-1,4.82-1.5,7.71-1.5c4.45,0,8.05,1.13,10.79,3.38
		c2.74,2.25,4.21,5.33,4.4,9.25h-6.68c-0.15-2.1-0.99-3.79-2.53-5.06c-1.54-1.27-3.61-1.91-6.2-1.91c-2.4,0-4.31,0.51-5.72,1.54
		c-1.42,1.03-2.13,2.37-2.13,4.04c0,1.32,0.43,2.41,1.28,3.27c0.86,0.86,1.93,1.54,3.23,2.05c1.3,0.51,3.09,1.09,5.39,1.72
		c2.89,0.78,5.23,1.55,7.04,2.31c1.81,0.76,3.36,1.9,4.66,3.41c1.3,1.52,1.97,3.5,2.02,5.94c0,2.2-0.61,4.18-1.83,5.94
		c-1.22,1.76-2.95,3.14-5.17,4.15c-2.23,1-4.78,1.5-7.67,1.5C13.36,51.17,10.59,50.64,8.15,49.59z"/>
	<path fill="#1E6FFF" d="M38.97,10.3V0.17h6.68V10.3h15.7v5.5h-15.7v23.7c0,1.96,0.42,3.34,1.25,4.15c0.83,0.81,2.27,1.21,4.33,1.21
		h4.92v5.65h-6.02c-3.72,0-6.51-0.86-8.37-2.57c-1.86-1.71-2.79-4.52-2.79-8.44V15.8V10.3z"/>
	<g>
		<path fill="#1E6FFF" d="M182.82,10.3v40.21h-6.68v-5.94c-1.27,2.05-3.05,3.66-5.32,4.81c-2.27,1.15-4.78,1.72-7.52,1.72
			c-3.13,0-5.94-0.65-8.44-1.94c-2.49-1.3-4.46-3.24-5.91-5.83c-1.44-2.59-2.16-5.75-2.16-9.47V10.3h6.6v22.67
			c0,3.96,1,7.01,3.01,9.14c2.01,2.13,4.74,3.19,8.22,3.19c3.57,0,6.38-1.1,8.44-3.3c2.05-2.2,3.08-5.41,3.08-9.61V10.3H182.82z"/>
	</g>
	<path fill="#231F20" d="M118.41,8.52h-13.12V6.23l0-4.66h-6.68l0,4.66v2.29H85.5c-12.23,0-22.18,9.95-22.18,22.18
		c0,12.23,9.95,22.18,22.18,22.18h13.12v6.95h6.68v-6.95h13.12c12.23,0,22.18-9.95,22.18-22.18C140.6,18.47,130.64,8.52,118.41,8.52
		z M85.5,46.19c-8.54,0-15.49-6.95-15.49-15.49c0-8.54,6.95-15.49,15.49-15.49h13.12v30.98H85.5z M118.41,46.19h-13.12V15.21h13.12
		c8.54,0,15.49,6.95,15.49,15.49C133.9,39.24,126.95,46.19,118.41,46.19z"/>
	<path fill="#231F20" d="M193.99,38.5h-3.55h-1.81v0.87v0.94v8.39v1.81h1.81h3.55c3.31,0,6.01-2.7,6.01-6.01
		C200,41.19,197.3,38.5,193.99,38.5z"/>
</g>
</svg>
